<?xml version="1.0" standalone="no"?>
<!DOCTYPE svg PUBLIC "-//W3C//DTD SVG 20010904//EN"
 "http://www.w3.org/TR/2001/REC-SVG-20010904/DTD/svg10.dtd">
<svg version="1.0" xmlns="http://www.w3.org/2000/svg"
 width="116.000000pt" height="116.000000pt" viewBox="0 0 116.000000 116.000000"
 preserveAspectRatio="xMidYMid meet">
<metadata>
Created by potrace 1.11, written by Peter Selinger 2001-2013
</metadata>
<g transform="translate(0.000000,116.000000) scale(0.100000,-0.100000)"
fill="#000000" stroke="none">
<path d="M605 1074 c-93 -45 -250 -121 -347 -168 l-178 -85 0 -45 0 -45 73 31
c39 17 195 84 346 149 150 66 277 119 281 119 5 0 64 -73 131 -162 67 -90 133
-176 146 -191 l23 -29 0 49 c0 46 -6 57 -140 243 -77 107 -144 194 -150 192
-7 -1 -9 2 -6 7 16 26 -23 12 -179 -65z"/>
<path d="M660 958 c-63 -28 -218 -97 -345 -154 l-230 -102 -3 -41 c-2 -23 -1
-41 1 -41 3 0 63 23 133 51 357 141 556 219 563 219 4 0 59 -62 121 -137 63
-76 117 -140 120 -143 3 -3 18 -20 33 -38 l27 -34 0 46 c0 44 -7 55 -118 199
-153 198 -176 227 -182 227 -3 -1 -57 -24 -120 -52z"/>
<path d="M235 651 l-150 -57 -3 -42 c-2 -23 -2 -42 0 -42 2 0 50 15 108 34 58
19 168 53 245 76 77 23 144 45 150 48 10 6 -144 41 -180 41 -11 0 -87 -26
-170 -58z"/>
<path d="M769 695 c-3 -2 -130 -43 -284 -90 -154 -47 -308 -95 -342 -106 l-63
-21 0 -39 c0 -21 3 -39 6 -39 4 0 151 42 328 94 176 52 333 97 348 101 22 6
48 -8 160 -82 73 -49 139 -93 146 -97 9 -5 12 3 12 33 0 39 0 40 -134 134
-140 100 -171 119 -177 112z"/>
<path d="M695 550 c-33 -10 -152 -44 -265 -75 -113 -31 -216 -60 -230 -65 -14
-4 -46 -14 -72 -20 -47 -12 -48 -14 -48 -51 0 -22 5 -39 11 -39 7 0 165 39
352 86 l340 86 101 -53 c56 -29 115 -60 131 -69 60 -33 65 -33 65 5 0 31 -5
37 -67 75 -38 23 -104 64 -148 91 -44 27 -87 49 -95 48 -8 0 -42 -9 -75 -19z"/>
<path d="M659 420 c-58 -15 -110 -30 -115 -33 -6 -3 -9 -25 -8 -49 2 -42 2
-43 35 -42 19 1 68 9 109 19 41 9 82 18 90 19 14 3 71 -16 145 -49 17 -7 59
-24 95 -38 l65 -25 3 35 c2 20 0 39 -5 43 -17 16 -269 142 -288 145 -11 2 -68
-9 -126 -25z"/>
<path d="M769 316 c-2 -2 -20 -6 -39 -9 -19 -3 -120 -21 -225 -41 -104 -19
-203 -38 -220 -41 -16 -3 -52 -10 -80 -15 -68 -13 -98 -18 -112 -19 -8 -1 -13
-15 -13 -37 0 -19 3 -33 8 -31 4 3 45 8 92 12 47 4 92 9 102 10 9 2 69 8 135
15 65 6 132 12 148 15 17 2 62 7 100 10 39 4 80 8 92 10 18 3 130 -19 301 -60
20 -5 22 -2 22 33 l0 39 -142 53 c-79 29 -148 55 -154 57 -5 2 -12 2 -15 -1z"/>
<path d="M678 155 c-2 -2 -43 -6 -93 -10 -49 -3 -108 -8 -130 -10 -110 -10
-176 -15 -240 -20 -38 -3 -85 -8 -103 -11 -32 -5 -33 -6 -30 -52 l3 -47 353
-2 c235 -1 350 2 346 9 -4 6 1 6 13 -1 11 -6 22 -9 24 -7 2 2 24 7 49 10 76
10 144 18 175 21 28 2 30 6 33 44 2 31 0 41 -12 42 -9 1 -19 2 -23 3 -5 1 -35
6 -68 10 -33 5 -71 11 -85 13 -31 6 -207 12 -212 8z"/>
</g>
</svg>
