<svg aria-hidden="true" style="position: absolute; width: 0; height: 0; overflow: hidden;" version="1.1" xmlns="http://www.w3.org/2000/svg" xmlns:xlink="http://www.w3.org/1999/xlink">
<defs>
<symbol id="icon-angle-left" viewBox="0 0 13 32">
<path d="M11.197 9.714c0 0.143-0.072 0.304-0.178 0.41l-7.018 7.018 7.018 7.018c0.107 0.107 0.178 0.267 0.178 0.41s-0.072 0.304-0.178 0.41l-0.893 0.893c-0.107 0.107-0.267 0.178-0.41 0.178s-0.304-0.072-0.41-0.178l-8.321-8.321c-0.107-0.107-0.178-0.267-0.178-0.41s0.072-0.304 0.178-0.41l8.321-8.321c0.107-0.107 0.267-0.178 0.41-0.178s0.304 0.072 0.41 0.178l0.893 0.893c0.107 0.107 0.178 0.25 0.178 0.41z"></path>
</symbol>
<symbol id="icon-angle-right" viewBox="0 0 10 32">
<path d="M10.625 17.143c0 0.143-0.072 0.304-0.178 0.41l-8.321 8.321c-0.107 0.107-0.267 0.178-0.41 0.178s-0.304-0.072-0.41-0.178l-0.893-0.893c-0.107-0.107-0.178-0.25-0.178-0.41 0-0.143 0.072-0.304 0.178-0.41l7.018-7.018-7.018-7.018c-0.107-0.107-0.178-0.267-0.178-0.41s0.072-0.304 0.178-0.41l0.893-0.893c0.107-0.107 0.267-0.178 0.41-0.178s0.304 0.072 0.41 0.178l8.321 8.321c0.107 0.107 0.178 0.267 0.178 0.41z"></path>
</symbol>
<symbol id="icon-angle-down" viewBox="0 0 21 32">
<path d="M19.197 13.143c0 0.143-0.072 0.304-0.178 0.41l-8.321 8.321c-0.107 0.107-0.267 0.178-0.41 0.178s-0.304-0.072-0.41-0.178l-8.321-8.321c-0.107-0.107-0.178-0.267-0.178-0.41s0.072-0.304 0.178-0.41l0.893-0.893c0.107-0.107 0.25-0.178 0.41-0.178 0.143 0 0.304 0.072 0.41 0.178l7.018 7.018 7.018-7.018c0.107-0.107 0.267-0.178 0.41-0.178s0.304 0.072 0.41 0.178l0.893 0.893c0.107 0.107 0.178 0.267 0.178 0.41z"></path>
</symbol>
<symbol id="icon-angle-up" viewBox="0 0 21 32">
<path d="M19.197 21.143c0 0.143-0.072 0.304-0.178 0.41l-0.893 0.893c-0.107 0.107-0.25 0.178-0.41 0.178-0.143 0-0.304-0.072-0.41-0.178l-7.018-7.018-7.018 7.018c-0.107 0.107-0.267 0.178-0.41 0.178s-0.304-0.072-0.41-0.178l-0.893-0.893c-0.107-0.107-0.178-0.267-0.178-0.41s0.072-0.304 0.178-0.41l8.321-8.321c0.107-0.107 0.267-0.178 0.41-0.178s0.304 0.072 0.41 0.178l8.321 8.321c0.107 0.107 0.178 0.267 0.178 0.41z"></path>
</symbol>
<symbol id="icon-facebook" viewBox="0 0 18 32">
<path d="M17.125 0.214v4.714h-2.803c-2.197 0-2.607 1.054-2.607 2.571v3.375h5.232l-0.696 5.286h-4.536v13.553h-5.464v-13.553h-4.553v-5.286h4.553v-3.893c0-4.518 2.768-6.982 6.803-6.982 1.928 0 3.59 0.143 4.072 0.214z"></path>
</symbol>
<symbol id="icon-search" viewBox="0 0 32 32">
<path fill="#fff" style="fill: var(--color1, #fff)" d="M23.483 20.655c1.571-2.129 2.515-4.805 2.515-7.701 0-7.206-5.841-13.047-13.047-13.047s-13.047 5.841-13.047 13.047c0 7.206 5.841 13.047 13.047 13.047 2.898 0 5.575-0.945 7.74-2.543l-0.036 0.025 8.517 8.517 2.829-2.829-8.517-8.517zM13 22c-4.971 0-9-4.030-9-9s4.030-9 9-9c4.971 0 9 4.030 9 9v0c-0.006 4.968-4.032 8.994-9 9h-0.001z"></path>
</symbol>
<symbol id="icon-send" viewBox="0 0 32 32">
<path fill="#fff" style="fill: var(--color1, #fff)" d="M31.998 0l-31.998 17.999 10.227 3.788 15.771-14.787-11.999 16.187h-0.012v8.811l5.736-6.692 7.276 2.692z"></path>
</symbol>
<symbol id="icon-logo" viewBox="0 0 114 32">
<path fill="#fff" style="fill: var(--color1, #fff)" d="M54.548 11.766c0.073-0.204 0.129-0.443 0.158-0.69l0.002-0.016c0.022-0.215 0.033-0.397 0.033-0.547-0.019-0.161-0.053-0.308-0.102-0.448l0.004 0.015c-0.044-0.119-0.109-0.221-0.193-0.305l0 0c-0.093-0.068-0.198-0.128-0.311-0.174l-0.010-0.003c-0.131-0.053-0.284-0.092-0.443-0.11l-0.008-0.001c-0.162-0.038-0.364-0.071-0.57-0.094l-0.024-0.002c-0.205-0.020-0.434-0.032-0.692-0.032l-0.578-0.064-0.064 0.064h-0.546q-0.194 0.033-0.37 0.048c-0.118 0.012-0.231 0.028-0.337 0.048-0.191 0.024-0.359 0.058-0.524 0.103l0.025-0.006c-0.161 0.043-0.327 0.086-0.498 0.128-0.177 0.045-0.333 0.117-0.471 0.212l0.005-0.003c-0.141 0.098-0.263 0.209-0.368 0.334l-0.002 0.003c-0.1 0.139-0.196 0.297-0.28 0.462l-0.009 0.021c-0.085 0.172-0.162 0.374-0.22 0.585l-0.006 0.024c-0.042 0.172-0.080 0.332-0.111 0.483-0.028 0.115-0.045 0.249-0.048 0.385l-0 0.002c-0 0.007-0 0.015-0 0.022 0 0.112 0.012 0.221 0.034 0.326l-0.002-0.010c0.023 0.103 0.056 0.194 0.099 0.279l-0.003-0.007c0.045 0.089 0.104 0.164 0.176 0.226l0.001 0.001c0.078 0.066 0.168 0.12 0.267 0.158l0.006 0.002c0.097 0.040 0.215 0.078 0.336 0.107l0.017 0.004c0.127 0.031 0.272 0.050 0.422 0.050 0.010 0 0.020-0 0.030-0l-0.002 0c0.065 0.018 0.146 0.035 0.229 0.047l0.012 0.001c0.068 0.010 0.147 0.016 0.227 0.016 0.005 0 0.010-0 0.015-0h0.513c0.029 0.001 0.057 0.007 0.082 0.017l-0.002-0.001c0.024 0.009 0.052 0.015 0.081 0.016h0c0.051 0.001 0.101 0.007 0.149 0.017l-0.005-0.001c0.050 0.010 0.107 0.016 0.166 0.016 0.004 0 0.008-0 0.012-0h0.803q0.804 0.033 1.559 0.111t1.463 0.209q0.676 0.128 1.335 0.289t1.269 0.353c0.395 0.141 0.729 0.367 0.995 0.658l0.002 0.002c0.258 0.297 0.449 0.66 0.544 1.060l0.003 0.017c0.074 0.326 0.116 0.7 0.116 1.085 0 0.161-0.007 0.321-0.022 0.479l0.002-0.020c-0.065 0.728-0.19 1.396-0.372 2.039l0.019-0.078c-0.019 0.036-0.036 0.079-0.048 0.123l-0.001 0.005c-0.012 0.049-0.029 0.092-0.050 0.132l0.002-0.003v0.096c-0.022 0.022-0.032 0.038-0.032 0.048v0.048c-0.019 0.037-0.036 0.080-0.047 0.125l-0.001 0.004c-0.010 0.038-0.016 0.081-0.016 0.125 0 0.001 0 0.002 0 0.004v-0c-0.005 0.036-0.016 0.068-0.033 0.097l0.001-0.001c-0.018 0.016-0.030 0.038-0.032 0.064l-0 0v0.064c-0.019 0.037-0.036 0.079-0.048 0.124l-0.001 0.005c-0.010 0.038-0.016 0.082-0.016 0.128v0c-0.022 0.022-0.038 0.049-0.048 0.080l-0 0.001c-0.017 0.045-0.033 0.082-0.051 0.117l0.003-0.006c0 0.002 0 0.003 0 0.005 0 0.017-0.006 0.032-0.016 0.043l0-0c-0.010 0.011-0.016 0.026-0.016 0.043 0 0.002 0 0.004 0 0.006l-0-0c-0.022 0.022-0.038 0.049-0.048 0.080l-0 0.001c-0.010 0.024-0.016 0.051-0.017 0.080l-0 0.001c-0.004 0.036-0.015 0.069-0.033 0.099l0.001-0.001c0 0 0 0 0 0 0 0.023-0.006 0.046-0.016 0.065l0-0.001c-0.010 0.019-0.015 0.041-0.016 0.064v0q-0.096 0.257-0.192 0.498c-0.065 0.161-0.129 0.327-0.193 0.498-0.043 0.086-0.086 0.166-0.129 0.241s-0.086 0.156-0.128 0.241-0.086 0.166-0.129 0.241-0.086 0.156-0.128 0.241c-0.106 0.181-0.207 0.334-0.316 0.48l0.010-0.013c-0.117 0.16-0.238 0.302-0.369 0.434l0-0c-0.128 0.129-0.257 0.252-0.387 0.37-0.134 0.12-0.281 0.232-0.437 0.329l-0.013 0.008q-0.322 0.226-0.628 0.402t-0.659 0.337c-0.119 0.060-0.262 0.12-0.411 0.17l-0.024 0.007q-0.242 0.081-0.467 0.144-0.096 0.033-0.209 0.065c-0.075 0.020-0.156 0.042-0.241 0.064-0.214 0.043-0.433 0.080-0.659 0.111s-0.456 0.070-0.692 0.111c-0.15 0-0.301 0.004-0.451 0.016s-0.299 0.016-0.451 0.016c-0.005-0-0.011-0-0.017-0-0.072 0-0.143 0.006-0.212 0.017l0.008-0.001c-0.065 0.010-0.14 0.016-0.216 0.016-0.003 0-0.007 0-0.010-0h-0.289c-0.047 0-0.092 0.012-0.13 0.033l0.002-0.001h-1.125l-1.415 0.032q-1.094-0.033-2.058-0.080t-1.801-0.145c-0.544-0.062-1.034-0.163-1.508-0.305l0.060 0.016c-0.465-0.137-0.849-0.279-1.221-0.443l0.065 0.025c-0.341-0.17-0.619-0.422-0.816-0.731l-0.005-0.008c-0.213-0.36-0.347-0.789-0.369-1.248l-0-0.006c-0.022-0.199-0.034-0.43-0.034-0.664 0-0.396 0.036-0.784 0.105-1.16l-0.006 0.039q0.161-1.013 0.483-2.299l5.466-0.065q-0.065 0.322-0.111 0.596c-0.032 0.182-0.059 0.359-0.080 0.53-0.010 0.068-0.016 0.145-0.016 0.225s0.006 0.157 0.017 0.233l-0.001-0.009c0.017 0.144 0.051 0.275 0.1 0.398l-0.004-0.011c0.045 0.111 0.104 0.207 0.178 0.291l-0.001-0.001c0.092 0.097 0.205 0.174 0.331 0.223l0.006 0.002c0.136 0.066 0.294 0.111 0.461 0.128l0.006 0c0.175 0.020 0.377 0.032 0.583 0.032 0.004 0 0.008 0 0.012 0h-0.001l2.508-0.065c0.016 0.019 0.038 0.031 0.064 0.033l0 0h0.225c0.15 0 0.295-0.006 0.434-0.016s0.273-0.028 0.402-0.049c0.106-0.020 0.198-0.042 0.273-0.064s0.156-0.042 0.241-0.064c0.037-0.019 0.079-0.036 0.124-0.047l0.004-0.001c0.049-0.013 0.092-0.030 0.133-0.051l-0.004 0.002c0.156-0.044 0.291-0.12 0.402-0.222l-0.001 0.001c0.124-0.116 0.236-0.243 0.333-0.38l0.005-0.008c0.097-0.153 0.194-0.332 0.278-0.518l0.011-0.028c0.081-0.178 0.158-0.392 0.218-0.613l0.007-0.031c0.050-0.168 0.095-0.374 0.125-0.584l0.003-0.024c0.007-0.049 0.011-0.106 0.011-0.163 0-0.114-0.016-0.224-0.045-0.328l0.002 0.009c-0.020-0.126-0.058-0.239-0.114-0.343l0.003 0.006c-0.054-0.096-0.137-0.169-0.238-0.208l-0.003-0.001c-0.087-0.043-0.193-0.087-0.302-0.123l-0.019-0.006c-0.118-0.040-0.26-0.073-0.405-0.094l-0.013-0.002c-0.137-0.040-0.296-0.069-0.46-0.080l-0.007-0c-0.161-0.011-0.327-0.028-0.498-0.048h-0.772c-0.091-0-0.18-0.006-0.268-0.017l0.011 0.001c-0.101-0.013-0.188-0.031-0.273-0.053l0.016 0.003h-0.597c-0.041-0.002-0.079-0.014-0.112-0.033l0.001 0.001c-0.002 0-0.005 0-0.008 0-0.037 0-0.072-0.006-0.105-0.017l0.002 0.001c-0.032-0.010-0.070-0.016-0.109-0.016-0.001 0-0.001 0-0.002 0h0q-0.933-0.064-1.752-0.161t-1.494-0.225q-0.674-0.159-1.254-0.353c-0.429-0.141-0.78-0.283-1.121-0.444l0.059 0.025c-0.303-0.175-0.548-0.419-0.718-0.713l-0.005-0.009c-0.188-0.339-0.31-0.74-0.337-1.166l-0-0.008c-0.013-0.165-0.020-0.356-0.020-0.55 0-0.396 0.031-0.785 0.090-1.165l-0.005 0.042c0.123-0.828 0.28-1.545 0.48-2.243l-0.030 0.122c0.149-0.551 0.298-0.995 0.467-1.429l-0.033 0.095c0.178-0.47 0.345-0.847 0.531-1.213l-0.033 0.071c0.197-0.373 0.411-0.694 0.651-0.992l-0.009 0.011c0.244-0.298 0.496-0.566 0.766-0.815l0.005-0.005c0.266-0.225 0.56-0.438 0.87-0.625l0.030-0.017c0.289-0.177 0.627-0.349 0.979-0.496l0.050-0.019c0.328-0.12 0.737-0.236 1.157-0.326l0.066-0.012c0.395-0.088 0.878-0.162 1.37-0.206l0.045-0.003h0.209c0.086-0.001 0.169-0.012 0.248-0.034l-0.007 0.002h0.451c0.172 0 0.337-0.004 0.498-0.016s0.316-0.027 0.467-0.048h0.594c0.041-0.002 0.079-0.014 0.112-0.033l-0.001 0.001h0.402c0.041-0.002 0.079-0.014 0.112-0.033l-0.001 0.001h0.707q0.933 0 1.771 0.064c0.558 0.043 1.083 0.096 1.576 0.161s0.959 0.144 1.398 0.241c0.503 0.109 0.918 0.225 1.323 0.362l-0.084-0.025c0.361 0.147 0.663 0.372 0.897 0.656l0.003 0.004c0.241 0.308 0.411 0.683 0.48 1.093l0.002 0.014c0.052 0.291 0.081 0.625 0.081 0.967 0 0.214-0.012 0.426-0.034 0.634l0.002-0.026c-0.078 0.76-0.208 1.449-0.391 2.116l0.021-0.090c-0.022 0.022-0.032 0.038-0.032 0.048v0.081c-0.019 0.015-0.031 0.038-0.032 0.064v0.032l-0.032 0.032v0.064l-0.048 0.048c-0.010 0.011-0.016 0.027-0.016 0.043 0 0.002 0 0.004 0 0.006l-0-0v0.047c0 0.012-0.012 0.028-0.033 0.048v0.064c-0.018 0.016-0.030 0.039-0.032 0.065l-0 0v-0.033z"></path>
<path fill="#fff" style="fill: var(--color1, #fff)" d="M108.083 26.524h-5.66l4.791-16.431h-0.16l-9.711 16.431h-4.952l-1.093-16.431h-0.193l-3.891 16.431h-5.66l5.723-21.446h9.067l0.483 13.472h0.225l7.46-13.472h9.292z"></path>
<path fill="#fff" style="fill: var(--color1, #fff)" d="M69.919 22.654v3.915h-13.113l11.734-21.514h8.972l2.071 21.514h-5.867l-1.813-16.251-6.211 12.423z"></path>
<path fill="#fff" style="fill: var(--color1, #fff)" d="M19.472 0v3.432l-19.472 8.439v-2.435z"></path>
<path fill="#fff" style="fill: var(--color1, #fff)" d="M19.472 4.108v3.193l-19.472 7.729v-2.301z"></path>
<path fill="#fff" style="fill: var(--color1, #fff)" d="M8.801 12.367v2.889l-8.801 2.753v-2.302z"></path>
<path fill="#fff" style="fill: var(--color1, #fff)" d="M19.472 12.773v2.663l-19.472 5.641v-2.257z"></path>
<path fill="#fff" style="fill: var(--color1, #fff)" d="M19.472 16.248v2.753l-19.472 4.92v-2.256z"></path>
<path fill="#fff" style="fill: var(--color1, #fff)" d="M19.472 19.588l-6.835 1.794v2.854l6.835-1.489z"></path>
<path fill="#fff" style="fill: var(--color1, #fff)" d="M19.472 23.334v3.272l-19.472 2.053v-1.76z"></path>
<path fill="#fff" style="fill: var(--color1, #fff)" d="M19.472 27.577v4.423h-19.472v-2.708z"></path>
<path fill="#d1d1d1" style="fill: var(--color2, #d1d1d1)" d="M27.667 11.464v2.708l-8.195-10.742v-3.432z"></path>
<path fill="#d1d1d1" style="fill: var(--color2, #d1d1d1)" d="M27.667 14.623v2.618l-8.195-9.94v-3.193z"></path>
<path fill="#d1d1d1" style="fill: var(--color2, #d1d1d1)" d="M27.667 18.55v2.302l-8.195-5.415v-2.663z"></path>
<path fill="#d1d1d1" style="fill: var(--color2, #d1d1d1)" d="M27.667 21.382v1.952l-8.195-4.333v-2.753z"></path>
<path fill="#d1d1d1" style="fill: var(--color2, #d1d1d1)" d="M27.667 23.786v2.214l-8.195-3.252v-3.159z"></path>
<path fill="#d1d1d1" style="fill: var(--color2, #d1d1d1)" d="M27.667 26.358v2.122l-8.195-1.873v-3.272z"></path>
<path fill="#d1d1d1" style="fill: var(--color2, #d1d1d1)" d="M27.667 28.841v2.121l-8.195 1.038v-4.423z"></path>
<path fill="#d1d1d1" style="fill: var(--color2, #d1d1d1)" d="M14.533 13.495l-5.732-1.128v2.889z"></path>
</symbol>
<symbol id="icon-instagram" viewBox="0 0 27 32">
<path d="M18.286 16c0-2.518-2.054-4.571-4.571-4.571s-4.571 2.054-4.571 4.571 2.054 4.571 4.571 4.571 4.571-2.054 4.571-4.571zM20.75 16c0 3.893-3.143 7.035-7.035 7.035s-7.035-3.143-7.035-7.035 3.143-7.035 7.035-7.035 7.035 3.143 7.035 7.035zM22.679 8.679c0 0.911-0.733 1.642-1.642 1.642s-1.642-0.733-1.642-1.642 0.733-1.642 1.642-1.642 1.642 0.733 1.642 1.642zM13.714 4.75c-2 0-6.286-0.161-8.089 0.553-0.625 0.25-1.089 0.553-1.571 1.035s-0.786 0.946-1.035 1.571c-0.714 1.803-0.553 6.089-0.553 8.089s-0.161 6.286 0.553 8.089c0.25 0.625 0.553 1.089 1.035 1.571s0.946 0.786 1.571 1.035c1.803 0.714 6.089 0.553 8.089 0.553s6.286 0.161 8.089-0.553c0.625-0.25 1.089-0.553 1.571-1.035s0.786-0.946 1.035-1.571c0.714-1.803 0.553-6.089 0.553-8.089s0.161-6.286-0.553-8.089c-0.25-0.625-0.553-1.089-1.035-1.571s-0.946-0.786-1.571-1.035c-1.803-0.714-6.089-0.553-8.089-0.553zM27.429 16c0 1.893 0.018 3.768-0.089 5.661-0.107 2.197-0.607 4.143-2.214 5.75s-3.553 2.107-5.75 2.214c-1.893 0.107-3.768 0.089-5.661 0.089s-3.768 0.018-5.661-0.089c-2.197-0.107-4.143-0.607-5.75-2.214s-2.107-3.553-2.214-5.75c-0.107-1.893-0.089-3.768-0.089-5.661s-0.018-3.768 0.089-5.661c0.107-2.197 0.607-4.143 2.214-5.75s3.553-2.107 5.75-2.214c1.893-0.107 3.768-0.089 5.661-0.089s3.768-0.018 5.661 0.089c2.197 0.107 4.143 0.607 5.75 2.214s2.107 3.553 2.214 5.75c0.107 1.893 0.089 3.768 0.089 5.661z"></path>
</symbol>
<symbol id="icon-map" viewBox="0 0 18 32">
<path d="M13.714 11.429c0-2.518-2.054-4.571-4.571-4.571s-4.571 2.054-4.571 4.571 2.054 4.571 4.571 4.571 4.571-2.054 4.571-4.571zM18.286 11.429c0 1.089-0.125 2.214-0.59 3.197l-6.501 13.822c-0.375 0.786-1.197 1.267-2.054 1.267s-1.679-0.482-2.035-1.267l-6.518-13.822c-0.464-0.982-0.59-2.107-0.59-3.197 0-5.054 4.089-9.143 9.143-9.143s9.143 4.089 9.143 9.143z"></path>
</symbol>
<symbol id="icon-telephone" viewBox="0 0 32 32">
<path fill="#fff" style="fill: var(--color1, #fff)" d="M14.863 29.238l-12.101-12.101c-1.706-1.704-2.762-4.060-2.762-6.662s1.055-4.957 2.761-6.662l3.54-3.54c0.17-0.169 0.404-0.274 0.662-0.274 0.305 0 0.576 0.146 0.748 0.372l0.002 0.002 6.026 8.025c0.117 0.155 0.187 0.35 0.187 0.562 0 0.259-0.105 0.494-0.275 0.664v0l-3.6 3.6c-0.194 0.194-0.314 0.461-0.314 0.757s0.12 0.563 0.314 0.757v0l7.2 7.2c0.194 0.194 0.461 0.314 0.757 0.314s0.563-0.12 0.757-0.314v0l3.6-3.6c0.17-0.17 0.404-0.275 0.664-0.275 0.212 0 0.408 0.070 0.565 0.189l-0.002-0.002 8.034 6.024c0.228 0.173 0.374 0.444 0.374 0.749 0 0.259-0.105 0.493-0.274 0.663l-3.54 3.54c-1.704 1.706-4.060 2.762-6.662 2.762s-4.957-1.055-6.662-2.761l-0-0z"></path>
</symbol>
<symbol id="icon-twitter" viewBox="0 0 30 32">
<path d="M28.928 7.286c-0.786 1.143-1.768 2.161-2.893 2.982 0.018 0.25 0.018 0.501 0.018 0.75 0 7.625-5.803 16.41-16.41 16.41-3.267 0-6.304-0.946-8.857-2.59 0.464 0.054 0.911 0.072 1.393 0.072 2.696 0 5.178-0.911 7.161-2.464-2.536-0.054-4.661-1.714-5.393-4 0.358 0.054 0.714 0.089 1.089 0.089 0.518 0 1.035-0.072 1.518-0.197-2.642-0.536-4.625-2.857-4.625-5.661v-0.072c0.768 0.429 1.661 0.696 2.607 0.733-1.553-1.035-2.571-2.803-2.571-4.803 0-1.072 0.286-2.054 0.786-2.911 2.839 3.499 7.107 5.786 11.893 6.035-0.089-0.429-0.143-0.875-0.143-1.321 0-3.178 2.571-5.768 5.768-5.768 1.661 0 3.161 0.696 4.214 1.822 1.304-0.25 2.553-0.733 3.661-1.393-0.429 1.339-1.339 2.464-2.536 3.178 1.161-0.125 2.286-0.447 3.321-0.893z"></path>
</symbol>
</defs>
</svg>
